/* XPM */
static char *_7259cc7ad5a47c1a388adeabaa59ff5[] = {
/* columns rows colors chars-per-pixel */
"32 32 124 2 ",
"   c #9C7500",
".  c #9D7A03",
"X  c #9D7709",
"o  c #9D7D0B",
"O  c #9C7C14",
"+  c #9C7D1A",
"@  c #A47700",
"#  c #A47B05",
"$  c #A87A03",
"%  c #A57C0A",
"&  c #A97D0B",
"*  c #A37C11",
"=  c #A17E1F",
"-  c #9E7E24",
";  c #A48116",
":  c #A3811E",
">  c #AB831D",
",  c #9E8025",
"<  c #9D8328",
"1  c #9E8532",
"2  c #9F8833",
"3  c #9E873C",
"4  c #A48224",
"5  c #AD8625",
"6  c #AE8926",
"7  c #A2842C",
"8  c #AE872B",
"9  c #A6882E",
"0  c #AE882D",
"q  c #A28632",
"w  c #AF8B33",
"e  c #A08738",
"r  c #AF8C38",
"t  c #B08E3D",
"y  c #C6920C",
"u  c #C8950E",
"i  c #C59211",
"p  c #CA9610",
"a  c #CB9915",
"s  c #C2931F",
"d  c #CC9C1B",
"f  c #C29524",
"g  c #C59826",
"h  c #CD9F21",
"j  c #C1962C",
"k  c #C19730",
"l  c #C19833",
"z  c #C19A3A",
"x  c #CEA125",
"c  c #CFA42D",
"v  c #CFA531",
"b  c #D0A631",
"n  c #9D8746",
"m  c #9F8B4B",
"M  c #A18541",
"N  c #A38942",
"B  c #A18C4D",
"V  c #A5904E",
"C  c #B19245",
"Z  c #B1944D",
"A  c #A08C52",
"S  c #A28E58",
"D  c #A59153",
"F  c #A89250",
"G  c #A5945C",
"H  c #A8955C",
"J  c #A39363",
"K  c #A3956D",
"L  c #B69F65",
"P  c #B69F6A",
"I  c #A39971",
"U  c #AA9C74",
"Y  c #A39B7D",
"T  c #AB9E7E",
"R  c #B6A16B",
"E  c #B7A372",
"W  c #B9A67A",
"Q  c #C19C45",
"!  c #C09E4C",
"~  c #C4A046",
"^  c #C3A14B",
"/  c #C1A152",
"(  c #C1A45C",
")  c #C1A663",
"_  c #C4A863",
"`  c #C3AA6D",
"'  c #C1AA71",
"]  c #C1AD7A",
"[  c #A69D83",
"{  c #AA9F84",
"}  c #AAA183",
"|  c #A6A18E",
" . c #ACA48B",
".. c #B8A984",
"X. c #BAAC8C",
"o. c #A6A394",
"O. c #AAA594",
"+. c #A7A59D",
"@. c #A9A69A",
"#. c #ABA99E",
"$. c #BCB19A",
"%. c #A8A7A0",
"&. c #A7A8A3",
"*. c #AAAAA4",
"=. c #ABACAA",
"-. c #B0AEA3",
";. c #B0AEA9",
":. c #BEB6A4",
">. c #BFBAAD",
",. c #AFB2B4",
"<. c #B0B4B9",
"1. c #C1B087",
"2. c #C2B28C",
"3. c #C2B390",
"4. c #C4B798",
"5. c #C4B89C",
"6. c #C1B7A1",
"7. c #C2B9A4",
"8. c #C1BBAC",
"9. c #C1BDB4",
"0. c #C1BFB9",
"q. c #C2C1BE",
"w. c #C3C3C2",
"e. c None",
/* pixels */
"e.e.e.e.e.e.e.e.e.e.e.e.e.e.e.e.e.e.e.e.e.e.e.e.e.e.e.e.e.e.e.e.",
"e.e.e.e.e.e.e.e.e.e.e.e.c x d d a d h c e.e.e.e.e.e.e.e.e.e.e.e.",
"e.e.e.e.e.e.e.e.e.b d u y s l z z l f y y d b e.e.e.e.e.e.e.e.e.",
"e.e.e.e.e.e.e.e.d y j ' :.8.:.$.$.:.8.:.' j y d e.e.e.e.e.e.e.e.",
"e.e.e.e.e.e.b p s 1.q.X.Z 5 ; % $ * 5 Z X.q.1.f u v e.e.e.e.e.e.",
"e.e.e.e.e.b y Q q.X.5 @ $ $ $ % & $ @ @ @ 5 X.q.! y c e.e.e.e.e.",
"e.e.e.e.b y ( w.Z @ $ % ; ; ; @ % $ % % & @ @ C q.( y b e.e.e.e.",
"e.e.e.e.p / q.0 @ % % # 4 -.V . # . @ X $ % & @ 8 q./ u e.e.e.e.",
"e.e.e.d k w.t @ % *  .H   O. .o * + o @ . # $ % @ r w.l d e.e.e.",
"e.e.b i 7.E @ & # X  .#.  S =.[ @.-.@.3 @ # # % & $ R 7.u c e.e.",
"e.e.a ^ 9.& # % #   M ;.[ +.=.=.=.*.=.-., @ # % % $ ; 9.^ a e.e.",
"e.e.u 4.P @ % # * N { *.&.| J 3 3 | *.=.V   o % % & $ L 5.u e.e.",
"e.x g 9.6 $ @ 4 *.<.;.&.&.q   .   n &.=.e   % % $ ; $ 6 9.g h e.",
"e.d Q 7.$ & @ * U V K &.&.J . X   J &.o.A 2 . # ; $ ; $ :.^ d e.",
"e.a _ X.$ % $ # @ @ + @.&.o.O O J &.&.&.*.=.J . $ # & $ X._ p e.",
"e.p ` W $ % $ % % X   K =.%.[ +.=.| [ +.&.#.;.7 . # & $ W ` p e.",
"e.p ` W $ $ $ $ # # . 1 &.+.%.I 2 O . + | &.=.D @ % & @ W ` p e.",
"e.p _ X.$ ; $ ; ; ; # o [ *.+.7 . o o   K =.=.H   % & @ X._ p e.",
"e.d ~ 7.$ ; $ ; ; ; % . A =.&.K . o   < o.*.=.q   % $ $ :.^ d e.",
"e.x d 8.> ; ; ; # # # . + @.&.o.O o n +.=.;.D   # % $ 5 9.g x e.",
"e.e.p 5.L $ ; $ ; # # .   J =.%.Y | =.=.} 2 . # # % $ L 5.p e.e.",
"e.e.a ^ 9.& $ $ $ # # # X J =.%.&.+.O.*.,   # # # $ & 9.^ a e.e.",
"e.e.b i 7.R $ & % # ; . { ,.*.+.=.3 < =.H @ # @ & @ P 8.y v e.e.",
"e.e.e.d l w.w @ % # $   U { q - =.J   |  .@ # ; @ w w.l d e.e.e.",
"e.e.e.e.u ( q.5 $ % % @ * @ @   T -.% : * # & $ 5 0.( u e.e.e.e.",
"e.e.e.e.b y ) q.t $ $ % % X & @ 4 9 % % % # $ t w.) y b e.e.e.e.",
"e.e.e.e.e.c y ! w...> @ @ $ & $ % $ $ @ $ > ..0./ y c e.e.e.e.e.",
"e.e.e.e.e.e.b u f 3.0...C = & $ $ % > C ..0.3.g i c e.e.e.e.e.e.",
"e.e.e.e.e.e.e.e.d y k ] 7.>.:.$.$.:.>.7.] k y d e.e.e.e.e.e.e.e.",
"e.e.e.e.e.e.e.e.e.b d u i f l Q C v j i u d v e.e.e.e.e.e.e.e.e.",
"e.e.e.e.e.e.e.e.e.e.e.e.c h d a a d d c e.e.e.e.e.e.e.e.e.e.e.e.",
"e.e.e.e.e.e.e.e.e.e.e.e.e.e.e.e.e.e.e.e.e.e.e.e.e.e.e.e.e.e.e.e."
};
