/* XPM */
static char *_cc1c3e39458433b9a9c1a52bb0677a8[] = {
/* columns rows colors chars-per-pixel */
"16 16 157 2 ",
"   c #987200",
".  c #9F7600",
"X  c #9A7906",
"o  c #9B7A07",
"O  c #A07300",
"+  c #A37400",
"@  c #A27500",
"#  c #A37500",
"$  c #A27501",
"%  c #A17700",
"&  c #A17701",
"*  c #A27600",
"=  c #A07502",
"-  c #A47500",
";  c #A57700",
":  c #A37705",
">  c #A17800",
",  c #A07900",
"<  c #A27800",
"1  c #A17A02",
"2  c #A47800",
"3  c #A57800",
"4  c #A47A02",
"5  c #A67D03",
"6  c #A37804",
"7  c #A27A06",
"8  c #A37D04",
"9  c #A47C04",
"0  c #A57D04",
"q  c #A57D06",
"w  c #A47C07",
"e  c #A47B0D",
"r  c #A37C0C",
"t  c #A77D0D",
"y  c #A67E0C",
"u  c #A77D0E",
"i  c #A77E0E",
"p  c #A77E0F",
"a  c #A47E11",
"s  c #A67E10",
"d  c #A07F14",
"f  c #9D8015",
"g  c #A5800B",
"h  c #A78017",
"j  c #A1801A",
"k  c #A78018",
"l  c #A4801C",
"z  c #A8811D",
"x  c #A9821D",
"c  c #A9811E",
"v  c #A9821E",
"b  c #A9821F",
"n  c #AA851F",
"m  c #9D8330",
"M  c #A38124",
"N  c #A98320",
"B  c #A98422",
"V  c #A98527",
"C  c #AA8727",
"Z  c #AA8629",
"A  c #AA8828",
"S  c #AA882F",
"D  c #A78934",
"F  c #A08838",
"G  c #A38B3F",
"H  c #A48A3C",
"J  c #A68C3E",
"K  c #CB9B19",
"L  c #CB9B1B",
"P  c #CC9B19",
"I  c #CC9B1A",
"U  c #CC9C1A",
"Y  c #CB9B1C",
"T  c #CB9C20",
"R  c #CB9D21",
"E  c #CC9D21",
"W  c #CC9F25",
"Q  c #CD9F26",
"!  c #C99E2E",
"~  c #C99E2F",
"^  c #C99E30",
"/  c #C99F30",
"(  c #C99F31",
")  c #C99F32",
"_  c #A18941",
"`  c #A08A43",
"'  c #A18C4B",
"]  c #A58E4B",
"[  c #A48F4D",
"{  c #A88F4A",
"}  c #A09057",
"|  c #A5925B",
" . c #A6935C",
".. c #B29550",
"X. c #B29750",
"o. c #B29751",
"O. c #B29652",
"+. c #B29856",
"@. c #B39858",
"#. c #B3995A",
"$. c #B29A5A",
"%. c #BFA25C",
"&. c #BFA25D",
"*. c #BFA35E",
"=. c #BFA35F",
"-. c #A39567",
";. c #A89764",
":. c #A79B75",
">. c #A59B76",
",. c #A79C77",
"<. c #A99C76",
"1. c #AA9D77",
"2. c #A49C7B",
"3. c #BFA361",
"4. c #BFA461",
"5. c #BBA776",
"6. c #BCA775",
"7. c #BCA776",
"8. c #C7A243",
"9. c #C7A244",
"0. c #C7A346",
"q. c #C8A752",
"w. c #C8A753",
"e. c #C2A55B",
"r. c #C2A55C",
"t. c #C2A65D",
"y. c #C2A865",
"u. c #C3A865",
"i. c #C3A866",
"p. c #C0A86D",
"a. c #C0A86E",
"s. c #C0A86F",
"d. c #C0A96F",
"f. c #C0A972",
"g. c #C0AA72",
"h. c #C0AA73",
"j. c #A49E83",
"k. c #A89F83",
"l. c #A59F88",
"z. c #A69F89",
"x. c #A5A18C",
"c. c #A7A28D",
"v. c #A7A28F",
"b. c #A9A289",
"n. c #A8A18A",
"m. c #A6A393",
"M. c #A7A496",
"N. c #A7A7A1",
"B. c #A7A8A2",
"V. c #AAA9A2",
"C. c #AAABA6",
"Z. c #A8AAA9",
"A. c #A9AAA9",
"S. c #ABABA9",
"D. c #ABACAB",
"F. c #AAAFB5",
"G. c None",
/* pixels */
"G.G.G.G.G.G.G.K K G.G.G.G.G.G.G.",
"G.G.G.G.Y 9.r.r.%.r.8.L G.G.G.G.",
"G.G.G.~ p.$.Z z x S #.s.~ G.G.G.",
"G.G.( 6.V # D d . O - B 6.( G.G.",
"G.E g.x : ;.| k.| H 8 3 x g.E G.",
"G.q.O.# M n.v.>.v.D.j 8 3 O.q.G.",
"G.i.x e <.V.2.  m Z.F < w n i.G.",
"Q 4.t w . ' B.} l.m.A.[ < t 3.Q ",
"Q r.y 5 8 d B.l.f X M.b.< t 3.W ",
"G.u.n g g # -.z.X ` S.] # B i.G.",
"G.w.X.3 t . _ F.l.S.G # ; O.q.G.",
"G.R 6.x 3 r 1.1.>.| G ; d g.E G.",
"G.G.( 6.B - # : { s 3 N 7.) G.G.",
"G.G.G.( g.$.Z d s C #.s.) G.G.G.",
"G.G.G.G.Y 0.r.r.t.r.0.E G.G.G.G.",
"G.G.G.G.G.G.G.L Y G.G.G.G.G.G.G."
};
