/* XPM */
static char *_b5094957175450fe3a9b076bbd018a6[] = {
/* columns rows colors chars-per-pixel */
"16 16 130 2 ",
"   c #B38231",
".  c #B38332",
"X  c #B58433",
"o  c #B78533",
"O  c #B68633",
"+  c #B78633",
"@  c #B58635",
"#  c #B88733",
"$  c #B88837",
"%  c #B3873C",
"&  c #B7893A",
"*  c #B5883C",
"=  c #B88839",
"-  c #BC8D3F",
";  c #C9943B",
":  c #CA943B",
">  c #CB953B",
",  c #CA953C",
"<  c #CB953D",
"1  c #C9953E",
"2  c #C9953F",
"3  c #BD8F42",
"4  c #BD8F43",
"5  c #BC9047",
"6  c #BC9247",
"7  c #BD9247",
"8  c #BC9249",
"9  c #BD9753",
"0  c #BE9753",
"q  c #BE9754",
"w  c #BE9855",
"e  c #BD9856",
"r  c #BD9857",
"t  c #BE9858",
"y  c #BD9A5D",
"u  c #BD9B5D",
"i  c #BDA06A",
"p  c #BEA06A",
"a  c #C99641",
"s  c #CA9640",
"d  c #CA9741",
"f  c #C99743",
"g  c #C99744",
"h  c #C99745",
"j  c #CC9841",
"k  c #C99845",
"l  c #CB9945",
"z  c #C99847",
"x  c #CA9946",
"c  c #C89849",
"v  c #CB9A48",
"b  c #CA9A49",
"n  c #C9994A",
"m  c #CA994A",
"M  c #CA9A4A",
"N  c #CC9A48",
"B  c #CB9B4D",
"V  c #C69B53",
"C  c #C79D56",
"Z  c #CA9C51",
"A  c #CB9E55",
"S  c #C69E59",
"D  c #C79E5A",
"F  c #CDA05C",
"G  c #C7A162",
"H  c #C6A164",
"J  c #C6A266",
"K  c #C4A36A",
"L  c #C7A36A",
"P  c #C4A46C",
"I  c #C4A46D",
"U  c #C4A673",
"Y  c #C4A774",
"T  c #C4A775",
"R  c #C7A873",
"E  c #CBA975",
"W  c #C6AA7B",
"Q  c #C2A97D",
"!  c #C7AB7D",
"~  c #CDAC7B",
"^  c #CDAC7D",
"/  c #CCAC7E",
"(  c #BDAE91",
")  c #BDAF93",
"_  c #BEAE92",
"`  c #BDAF94",
"'  c #BDBAB2",
"]  c #C1AB82",
"[  c #C4AC82",
"{  c #C1AC85",
"}  c #C3AC84",
"|  c #C1AC86",
" . c #C1AC87",
".. c #C1AD87",
"X. c #C4AD86",
"o. c #C7AE86",
"O. c #CDAE83",
"+. c #CFAE82",
"@. c #C1AD88",
"#. c #C1AD89",
"$. c #C1AF8D",
"%. c #C4B395",
"&. c #C5B598",
"*. c #C2B69E",
"=. c #C5B79E",
"-. c #C3B7A0",
";. c #C2B8A3",
":. c #C4BBA8",
">. c #C5BEB0",
",. c #C5BFB2",
"<. c #C1BDB4",
"1. c #C1BEB4",
"2. c #C3C0B4",
"3. c #C6C1B7",
"4. c #C5C2BA",
"5. c #C3C3BC",
"6. c #C5C5C0",
"7. c #C4C6C3",
"8. c #C1C6C6",
"9. c #C3C7C7",
"0. c #C2C7C8",
"q. c #C3C9CA",
"w. c #C3C9CB",
"e. c #C4C9CA",
"r. c #C4C9CB",
"t. c #C5CBCB",
"y. c #C4CBCC",
"u. c #C5CBCC",
"i. c #C4CBCD",
"p. c None",
/* pixels */
"p.p.p.p.p.p.p.p.p.p.p.p.p.p.p.p.",
"p.p.p.p.p.& 4 w w 4 $ p.p.p.p.p.",
"p.p.p.* 9 ) @.U Y $.) 9 @ p.p.p.",
"p.p.% p  .V A ) m m x | p X p.p.",
"p.p.t | < J *.<.%.} m > | e p.p.",
"p.= ) x Q <.e.,.>.e.[ d < ` # p.",
"p.8 | m L &.y.O.~ q.o.m < ] 5 p.",
"p.u P x A E y.4.8.i.8.R a L u p.",
"p.u K a B F 7.3.+.^ q.-.x P u p.",
"p.6 ] > d A :.5.^ =.q.o.m | 8 p.",
"p.X ) < a G 2.e.q.5.W x x ` X p.",
"p.p.w | < S | ;.! ' d > | w p.p.",
"p.p.X p | x m J S m a | p   p.p.",
"p.p.p.. 0 ) $.R U @.) 0   p.p.p.",
"p.p.p.p.p.X - 9 9 4 X p.p.p.p.p.",
"p.p.p.p.p.p.p.p.p.p.p.p.p.p.p.p."
};
