/* XPM */
static char *_810db61c17c4293a1ab211ee5b5e115[] = {
/* columns rows colors chars-per-pixel */
"32 32 78 1 ",
"  c #AC7E2F",
". c #AC7F30",
"X c #AF8031",
"o c #B38433",
"O c #B98734",
"+ c #BE8B35",
"@ c #B3863C",
"# c #BC8B3A",
"$ c #C08F3C",
"% c #CA953C",
"& c #AF8642",
"* c #B38842",
"= c #BF9347",
"- c #BF944A",
"; c #BF9A5A",
": c #BE9D64",
"> c #BE9F68",
", c #BEA26F",
"< c #BEA270",
"1 c #BEA67A",
"2 c #BDA87F",
"3 c #CA9741",
"4 c #CB9944",
"5 c #C09348",
"6 c #C7994D",
"7 c #CB9B4B",
"8 c #C79C56",
"9 c #CB9E54",
"0 c #C79E5B",
"q c #CB9F59",
"w c #CFA057",
"e c #CCA15C",
"r c #C49F65",
"t c #C5A166",
"y c #CEA362",
"u c #C5A46D",
"i c #C9A46D",
"p c #D0A76C",
"a c #D1A86E",
"s c #C3A573",
"d c #C9A772",
"f c #CCA973",
"g c #C0A67A",
"h c #C3AA7E",
"j c #CBAB7C",
"k c #D0AA74",
"l c #D1AD7B",
"z c #BDA781",
"x c #BDAC8B",
"c c #BCAF95",
"v c #BDB29B",
"b c #BDB5A2",
"n c #BAB5AA",
"m c #B9B7B1",
"M c #BCBBB3",
"N c #BBBEBC",
"B c #C2AC86",
"V c #CFAE81",
"C c #C1AE8B",
"Z c #CAAF88",
"A c #C4B08F",
"S c #C3B193",
"D c #CAB292",
"F c #C2B49B",
"G c #C9B59A",
"H c #C0B6A5",
"J c #C4B8A4",
"K c #C3BAAB",
"L c #C3BEB3",
"P c #BEC0BE",
"I c #C2C1BD",
"U c #BCC1C3",
"Y c #BEC5C9",
"T c #C1C4C5",
"R c #C0C7CA",
"E c #C4CACC",
"W c #C8CDCD",
"Q c None",
/* pixels */
"QQQQQQQQQQQQQQQQQQQQQQQQQQQQQQQQ",
"QQQQQQQQQQQQQQQQQQQQQQQQQQQQQQQQ",
"QQQQQQQQQQQ&###++###@QQQQQQQQQQQ",
"QQQQQQQQQ*#+$;s11<0#++@QQQQQQQQQ",
"QQQQQQQQ#+8cNUMHbMUNc;+#QQQQQQQQ",
"QQQQQQ*+5vNvt4%%%36uvNv=+@QQQQQQ",
"QQQQQ*+;MH8%%%t<347430bM;+oQQQQQ",
"QQQQQ#;PB%%zb3mP79674%%CP;+QQQQQ",
"QQQQ#5NB%%%FUwSYue9973%%BN=+QQQQ",
"QQQ@+bv%%34hRSnEYYUJw4%%%vb+oQQQ",
"QQQ#>N6%7tAMEEEEREETH74%%6N:+QQQ",
"QQ@$vc44gYREEEHDZJEEYw43%%xb+XQQ",
"QQO=U0470vATWEVkkaREY944%%0N=OQQ",
"QQ+,N3769eyKEEGllAEWJw74%%%N,+QQ",
"QQ+zb%479eySEWIGPEEWEPd73%%vz+QQ",
"QQ+xS%377eyjEWWEEYEEEEP943%Sx+QQ",
"QQ+xc%%379eyRWWKDVlFEWRi74%cx+QQ",
"QQ+2b%%%47weKWWGllkaRERh743v2+QQ",
"QQ+>P%%%4799SEWKlkaAEERy774P>#QQ",
"QQO=P8%%3478fEWIlAMEERFw740U=OQQ",
"QQX+vx%%3689dRWEYEEEPB7433xb+XQQ",
"QQQ+:P6%%%4vYEEERTESe74%%6Pt+QQQ",
"QQQO+bv%%%3cPnFYAfRS44%%%vb#oQQQ",
"QQQQ#-MB%%%8eeeYH7Un4%%%xN5OQQQQ",
"QQQQQ+;NC%%3779mn3r7%%%CP;+QQQQQ",
"QQQQQo+;Mb834747%%%%%8bM;#XQQQQQ",
"QQQQQQo+5vPFu6%%%%4tcPc5+XQQQQQQ",
"QQQQQQQQO+;cPUMbJMPNc;$OQQQQQQQQ",
"QQQQQQQQQoO+$;,11,;#++XQQQQQQQQQ",
"QQQQQQQQQQQXO++++++O.QQQQQQQQQQQ",
"QQQQQQQQQQQQQQQQQQQQQQQQQQQQQQQQ",
"QQQQQQQQQQQQQQQQQQQQQQQQQQQQQQQQ"
};
