/* XPM */
static char *_2580c040fcf418cb751d32d9f137b80[] = {
/* columns rows colors chars-per-pixel */
"64 64 178 2 ",
"   c #9B6E00",
".  c #977300",
"X  c #9D7601",
"o  c #9D7A03",
"O  c #9A740A",
"+  c #9C7C0A",
"@  c #997713",
"#  c #9D7A14",
"$  c #9A771D",
"%  c #9E7C1A",
"&  c #A17600",
"*  c #A97700",
"=  c #A47B06",
"-  c #A97B03",
";  c #A0770B",
":  c #A67C08",
">  c #A97E0B",
",  c #A17A11",
"<  c #AA7D15",
"1  c #A17D1C",
"2  c #AB7E19",
"3  c #9D7D24",
"4  c #9B7E29",
"5  c #9C811E",
"6  c #AA8007",
"7  c #A38009",
"8  c #A9800C",
"9  c #BE8B0B",
"0  c #A4801E",
"q  c #AD811E",
"w  c #BE8D14",
"e  c #BD8D1A",
"r  c #9E8220",
"t  c #9E832A",
"y  c #9D8434",
"u  c #9D833D",
"i  c #9F893B",
"p  c #A38224",
"a  c #AD8223",
"s  c #A4842D",
"d  c #AD852C",
"f  c #BC8E24",
"g  c #BD912D",
"h  c #A28433",
"j  c #AE8631",
"k  c #AF8834",
"l  c #A3853C",
"z  c #A48A3E",
"x  c #AE8A3E",
"c  c #B08936",
"v  c #B08A3B",
"b  c #BD9333",
"n  c #BE953B",
"m  c #BF983F",
"M  c #C08D07",
"N  c #C08E09",
"B  c #C3910C",
"V  c #C08D12",
"C  c #C08F19",
"Z  c #C49513",
"A  c #C69719",
"S  c #C7981C",
"D  c #CB9A1C",
"F  c #D09E1E",
"G  c #CF9F21",
"H  c #CFA125",
"J  c #CFA32B",
"K  c #D0A124",
"L  c #D0A42A",
"P  c #CDA633",
"I  c #CCA835",
"U  c #CBA73A",
"Y  c #CBA93B",
"T  c #9D8444",
"R  c #9E8A4C",
"E  c #9E8C52",
"W  c #9F8C5D",
"Q  c #A38747",
"!  c #A38A46",
"~  c #A0864D",
"^  c #A48C4C",
"/  c #B18E46",
"(  c #B18F49",
")  c #BD9642",
"_  c #BF9844",
"`  c #B2914D",
"'  c #BC964B",
"]  c #BE994D",
"[  c #A48C53",
"{  c #A28D5B",
"}  c #A49155",
"|  c #A5925B",
" . c #A8945D",
".. c #B29250",
"X. c #BE9B52",
"o. c #B2955B",
"O. c #BD9D5C",
"+. c #A18C63",
"@. c #A29264",
"#. c #AB9A65",
"$. c #A3936C",
"%. c #A7986D",
"&. c #AB9B6D",
"*. c #B29760",
"=. c #B39966",
"-. c #BE9F60",
";. c #B59C6C",
":. c #A39674",
">. c #A49972",
",. c #AA9B74",
"<. c #A19478",
"1. c #A59A7D",
"2. c #AA9D7C",
"3. c #B69F72",
"4. c #BEA165",
"5. c #BEA269",
"6. c #B6A076",
"7. c #BFA675",
"8. c #B7A27B",
"9. c #C09D55",
"0. c #C09F58",
"q. c #CDAB41",
"w. c #C0A05C",
"e. c #C1A774",
"r. c #C1A976",
"t. c #C1A97A",
"y. c #A49B83",
"u. c #A99E83",
"i. c #A59D8B",
"p. c #ABA185",
"a. c #A7A18D",
"s. c #ABA38D",
"d. c #B7A581",
"f. c #B8A785",
"g. c #BDAA85",
"h. c #B9AA8C",
"j. c #A6A294",
"k. c #AAA494",
"l. c #A7A69D",
"z. c #A9A69C",
"x. c #ABA99E",
"c. c #BAAD94",
"v. c #B0AC9F",
"b. c #BBB19D",
"n. c #A7A7A0",
"m. c #A8A7A1",
"M. c #A7A8A3",
"N. c #AAAAA2",
"B. c #ADAEA8",
"V. c #B0AEA5",
"C. c #B0AFA9",
"Z. c #AFB0AA",
"A. c #B1B1A6",
"S. c #BCB4A2",
"D. c #B1B1AA",
"F. c #BDB7AA",
"G. c #BEB9AD",
"H. c #BFBCB4",
"J. c #C1AC85",
"K. c #C0AD88",
"L. c #C2B08D",
"P. c #C1B294",
"I. c #C3B69B",
"U. c #C4B89F",
"Y. c #C2B7A2",
"T. c #C3B9A4",
"R. c #C4BBAB",
"E. c #C1BEB5",
"W. c #C1BFB8",
"Q. c #C4C0B7",
"!. c #C3C1BC",
"~. c #C5C6C3",
"^. c #C6C8C7",
"/. c #C3C7C9",
"(. c #C5CBCC",
"). c #C6CDD3",
"_. c #C8CED3",
"`. c None",
/* pixels */
"`.`.`.`.`.`.`.`.`.`.`.`.`.`.`.`.`.`.`.`.`.`.`.`.`.`.`.`.`.`.`.`.`.`.`.`.`.`.`.`.`.`.`.`.`.`.`.`.`.`.`.`.`.`.`.`.`.`.`.`.`.`.`.`.",
"`.`.`.`.`.`.`.`.`.`.`.`.`.`.`.`.`.`.`.`.`.`.`.`.`.`.`.`.`.`.`.`.`.`.`.`.`.`.`.`.`.`.`.`.`.`.`.`.`.`.`.`.`.`.`.`.`.`.`.`.`.`.`.`.",
"`.`.`.`.`.`.`.`.`.`.`.`.`.`.`.`.`.`.`.`.`.`.`.`.`.`.I J H H K K K G H L J P `.`.`.`.`.`.`.`.`.`.`.`.`.`.`.`.`.`.`.`.`.`.`.`.`.`.",
"`.`.`.`.`.`.`.`.`.`.`.`.`.`.`.`.`.`.`.`.`.`.I J K F D D D S D S S D S D D D F K L P `.`.`.`.`.`.`.`.`.`.`.`.`.`.`.`.`.`.`.`.`.`.",
"`.`.`.`.`.`.`.`.`.`.`.`.`.`.`.`.`.`.`.`.J K D D S S Z Z B V 9 9 N N V B Z Z S S S F K L `.`.`.`.`.`.`.`.`.`.`.`.`.`.`.`.`.`.`.`.",
"`.`.`.`.`.`.`.`.`.`.`.`.`.`.`.`.`.`.L F D D S Z N N w f b ) ' ' ' ' ) b f w 9 N B S S D F K `.`.`.`.`.`.`.`.`.`.`.`.`.`.`.`.`.`.",
"`.`.`.`.`.`.`.`.`.`.`.`.`.`.`.`.J K D S Z N V g O.g.Y.W./.(.).).).).(.~.Q.Y.g.O.g 9 N A S D F J `.`.`.`.`.`.`.`.`.`.`.`.`.`.`.`.",
"`.`.`.`.`.`.`.`.`.`.`.`.`.`.q.K D D Z 9 e 9.c.!.(.)./.W.S.h.8.6.6.8.c.S.H.(.).(.!.P.O.e N Z S D K I `.`.`.`.`.`.`.`.`.`.`.`.`.`.",
"`.`.`.`.`.`.`.`.`.`.`.`.`.P F D S N e -.R.(.).!.c.=.x a > - * * = * = > q / =.c.!./.(.E.5.e N A D F J `.`.`.`.`.`.`.`.`.`.`.`.`.",
"`.`.`.`.`.`.`.`.`.`.`.`.L F D Z 9 ' R.(./.F.;.d 7 - - = > 8 8 8 > > > > - * * * j ;.F./.(.R.X.9 Z A F L `.`.`.`.`.`.`.`.`.`.`.`.",
"`.`.`.`.`.`.`.`.`.`.`.L D S B e g./.(.F.*.< * - 8 8 7 > > > = = : : - > : : > > - * 2 o.F.(./.K.e V S D K `.`.`.`.`.`.`.`.`.`.`.",
"`.`.`.`.`.`.`.`.`.`.L D S N b R.(.~.6.2 = : 8 8 8 7 > = > = 7 = = - : = : : = : > > > * 2 6.W.(.R.b B S D K `.`.`.`.`.`.`.`.`.`.",
"`.`.`.`.`.`.`.`.`.L D D N n W.(.G./ * > > > : = = 7 = - = = = = : = = : : : : = = : : > > * v R.(.!._ N S D L `.`.`.`.`.`.`.`.`.",
"`.`.`.`.`.`.`.`.P F D N _ ~.(.c.2 * > : = : 7 = = - , ! s = = = = = = = = & = : : : : : > > * 2 h.(.~._ N S F J `.`.`.`.`.`.`.`.",
"`.`.`.`.`.`.`.q.F D B m !.(.f.> - > - = > = = = = ! s.D.,.= o = & = = = ; = = = * : : * : > > - > d.^.~.) B S F I `.`.`.`.`.`.`.",
"`.`.`.`.`.`.`.K D Z g W.(.f.- > > = : = = , p = & ^ A.A.v.p = = = = + & = = & = ; = = : * ; > > - : d.(.Q.b B S K `.`.`.`.`.`.`.",
"`.`.`.`.`.`.P F A V Y.(.b.> > > > : = 1 [ s.s., o @ a.A.B.| X + & & X X & = o = = = = = = - - : > > > c.(.R.e Z D L `.`.`.`.`.`.",
"`.`.`.`.`.`.F A N r.(.E.a - > ; : : * s C.A.V.x 7 . @.B.V.a.+ . @ 3 h s 3 X & = = o = = = : : : > > - 2 G.(.t.N S F U `.`.`.`.`.",
"`.`.`.`.`.L D B n ^.~...* < > * * : =   2.D.C.,.7 . 5 x.N.N.>.>.k.x.v.N.z.2.s X o = = = = = = = : > < * ` ~.~.) B S L `.`.`.`.`.",
"`.`.`.`.`.F D V P._.h.- > - : : ; = ; & Q V.N.z.5 . 5 a.N.N.V.N.N.N.N.V.N.N.N.l X = - = = = 6 = : - - < * g.(.I.V D F U `.`.`.`.",
"`.`.`.`.L D B ] ^.W.d - > : : = & = ; & # k.N.N.>.E j.N.B.M.M.M.x.N.N.N.N.N.N.k.# & = = = = = = : - : 6 - d !.(.] B S J `.`.`.`.",
"`.`.`.`.K D V I._.8.* > : ; * = : ; = &   +.C.N.N.M.N.N.M.M.M.M.N.N.N.N.N.N.N.V.| X o = = = 7 = : > : : 6 - 6.(.I.w D G `.`.`.`.",
"`.`.`.Y F Z b ^.!.j - > : * = ; & & & # ~ i.N.N.M.M.M.M.M.a.>.@.@.y.N.N.N.N.N.V.u.o o = = = = = : : 6 > 8 6 d !.^.m B F P `.`.`.",
"`.`.`.L D N e._.h.- > > ; ; = * O h $.k.B.N.N.N.M.l.l.>.i 7 . . o O +.m.N.N.N.N.s.# o o = = 7 = = : : 6 8 8 - g._.r.B D L `.`.`.",
"`.`.`.K D V T._.` - > > = = = l u.V.C.V.N.V.N.N.z.M.R . . 7 . . + o @ j.n.M.M.M.p.+ o = o = = 7 7 = : 7 : 8 - ' (.T.C D F `.`.`.",
"`.`.`.F Z b ~.E.a - > - = : & Q D.A.V.B.N.m.N.m.m.N.@.o @ . 5 7 + o . <.n.l.M.N.@.. + + + = = 7 = > 6 6 6 8 6 a W.^.b B F U `.`.",
"`.`.U F B 9._.c.- > > = = = = , k.D.x.u.k.N.N.N.M.n.a.% 7 7 + + + + O i.x.n.n.j.4 o X o o + 7 7 7 7 7 - > : 8 - h._.w.B F P `.`.",
"`.`.J D N r._.3.* > : = = = = & [  .1 X @ y.N.N.n.l.l.R . @ 7 7 + . W l.n.n.M.j.y.y.:.R + = = = > = : = : 8 6 - ;._.r.B D J `.`.",
"`.`.J D N L.)...* < = : = = = = = = o o X T N.m.M.n.l.1.+ + 7 7 7 W l.n.n.x.l.n.M.N.N.N.2.# o = = 7 = = : : > - ` ).L.V D H `.`.",
"`.`.K D V I.(.c - > > > : = = = = = = o o @ i.N.n.n.l.l.y . @ T y.x.l.n.n.n.n.n.l.M.N.x.B.>.X = o = = 7 : : > - k (.U.V D K `.`.",
"`.`.K D V T.~.d - > > - : = = = = o = o o X { N.n.n.n.n.>.E i.n.M.n.n.n.M.M.n.n.n.M.N.N.x.N.h o = = = = = > 6 - a ~.T.V D H `.`.",
"`.`.L A w R.~.a - > - > * = = - = = o = = o 4 j.n.n.x.n.l.M.l.l.M.n.j.1.$.$.y.l.l.x.M.M.N.B.%.o = = = = = > > : a !.R.e A G `.`.",
"`.`.K A V R.!.a - > : : 7 = = = = = 7 = o o o :.M.M.x.M.l.l.n.j.>.R 5 . . . . E l.l.n.N.N.N.s., = o = = : : > - 2 !.R.C D F `.`.",
"`.`.K A C T.~.d - 8 - : : - : = 7 7 = + 7 + o i x.l.l.M.n.l.@.t 7 7 7 5 5 7 . . $.n.n.m.N.N.z.p X = = = : > > * d ~.R.C Z K `.`.",
"`.`.H D V I.(.k - 8 > = : - = 7 = 7 7 = 7 7 7 # a.l.n.n.l.l.y o 7 7 @ . 7 5 5 . T n.m.N.N.N.N.p & = = = - : > - k ^.U.V D K `.`.",
"`.`.H D V L._...- 8 > 6 7 = 6 = = 7 7 7 + 7 7 o { M.l.n.n.n.$.o + + 7 7 . . . 7 T N.N.N.N.N.z.0 X = & = > - < * ( _.P.N D K `.`.",
"`.`.L F N r.).;.- 8 6 > 7 = 6 7 7 7 7 7 7 + + = r j.n.M.n.l.j.5 + . . 7 7 5 . . 1.m.N.N.N.V.2.& = & = : : : > - ;._.t.N D L `.`.",
"`.`.I F B 0._.c.- 8 6 > 6 = 7 > 7 7 = 7 7 7 = o o <.N.n.m.n.n.R . 7 5 . . . . >.N.N.N.N.N.N.l X = ; = = * : > - h._.w.B F P `.`.",
"`.`.`.G Z b ~.Q.q 6 8 > 7 8 7 6 6 = 7 - 7 = o = o u n.n.m.n.n.y.+ + 5 7 7 5 y.M.N.V.N.v.V.| X & = ; = = : > > 2 Q.^.n B F Y `.`.",
"`.`.`.G D Z T.(.` - 8 8 6 8 = = 7 7 = 7 o = = o o + i.x.m.n.l.l.i . . t W l.M.M.N.N.N.N.} X = X & = = > : > * / (.R.e D G `.`.`.",
"`.`.`.J D N t._.g.- 8 > > > : - - 7 = = 7 = o o + X { N.N.N.n.M.>.y <.l.N.N.N.N.N.N.p.i X & = = & = : = > 8 * g._.t.N D L `.`.`.",
"`.`.`.U F Z m ~.W.a - 8 : > : : = - 7 = = = o = & X $ j.N.N.m.n.M.M.M.M.N.N.N.N.s.} 7 o = & = ; ; : = = > : a Q.(._ B F P `.`.`.",
"`.`.`.`.F D V I._.3.- > > : : : 7 = = - - o 7 o ; X O i.N.N.N.M.M.M.M.M.N.N.N.N.4 X o o & = ; = : : > > > - ;.(.T.V D F `.`.`.`.",
"`.`.`.`.J D B 0.(.E.a - > : - : = = : - = = = = & $ $.x.N.N.N.N.M.M.M.j.1.z.N.N.^ X + o & = = = : * - > - a Q.(.9.B F K `.`.`.`.",
"`.`.`.`.`.G A V Y.(.d.* > > : : - = - = = = o o $.x.V.N.N.m.N.m.M.M.>.5 7 @.B.A.u.= = = = = & : : > : > * 8.(.T.e S F Y `.`.`.`.",
"`.`.`.`.`.J D B ' ^.~./ * > : = > = = = = = = & u.D.V.V.N.B.k.z.x.B.@.7 7 y N.N.V.h X = = & = > * ; > * x ~.(.] B F K `.`.`.`.`.",
"`.`.`.`.`.`.F S N J.(.R.2 - > > : - = = = = = & { D.C.V.p.[ @ [ B.M.k.5 . . y.Z.D.&.= o = = : = : > > 2 R.(.K.9 D D Y `.`.`.`.`.",
"`.`.`.`.`.`.L D A e R.(.L.> > > > = = = = = : & l v.&.h ; & X # k.A.A.R . 7 E Z.V.&.= = = = : : > > - K.(.E.C Z F K `.`.`.`.`.`.",
"`.`.`.`.`.`.`.K D B b !.(.8.- > > - > : = = & & < 0 & & & ; ; X %.A.A.p.= o 1 } p = & : = = > > > * 6.(.~.b B D K `.`.`.`.`.`.`.",
"`.`.`.`.`.`.`.Y F S V _ ^.^.6.- : > > = * : : : = & = ; & = : & h A.A.v.s = = = = : : : : > > > * 6.^.~.] N S F I `.`.`.`.`.`.`.",
"`.`.`.`.`.`.`.`.P F S N 9.^.^.h.< * > > = = = ; : : & = : & & : ; ,.#.p 7 = = 7 = = - : : > * > d./.^.9.M S F L `.`.`.`.`.`.`.`.",
"`.`.`.`.`.`.`.`.`.L D S M ] ~.^.Y.j * : < > : * * : ; = ; = : & = = = = = = > = = > > > > * j S.^.~.9.M A F L `.`.`.`.`.`.`.`.`.",
"`.`.`.`.`.`.`.`.`.`.K D S N n E.(.W.=.< * > > > ; > > : - : : : = : : : = > 7 > > 8 > * > =.W.(.E.) N S D K `.`.`.`.`.`.`.`.`.`.",
"`.`.`.`.`.`.`.`.`.`.`.L D D N f P.(.(.S...> = - > > ; : * : > ; : : : : > 8 8 8 6 - > ` S.(.(.P.f N S D K `.`.`.`.`.`.`.`.`.`.`.",
"`.`.`.`.`.`.`.`.`.`.`.`.L D D Z V 0.E.(.~.S.o.a * * - - > > > > > > > > > - - = a o.S./.(.E.-.9 Z S F J `.`.`.`.`.`.`.`.`.`.`.`.",
"`.`.`.`.`.`.`.`.`.`.`.`.`.J F D A M f r.E.).(.H.h.o.j 2 > * * * * * * > 8 d o.f.H.(.(.Q.r.f M S D F J `.`.`.`.`.`.`.`.`.`.`.`.`.",
"`.`.`.`.`.`.`.`.`.`.`.`.`.`.U K D S Z N f 4.Y.~.).(.~.G.c.d.3.=.=.3.8.c.G.!.).).~.Y.5.f 9 Z S D K U `.`.`.`.`.`.`.`.`.`.`.`.`.`.",
"`.`.`.`.`.`.`.`.`.`.`.`.`.`.`.`.J F D S Z N w n 5.P.R.~.(.).).).).).).(.~.E.c.5.n w 9 Z D D F J `.`.`.`.`.`.`.`.`.`.`.`.`.`.`.`.",
"`.`.`.`.`.`.`.`.`.`.`.`.`.`.`.`.`.`.J F D D A B 9 9 e b _ X.O.O.-.O.X.) b e 9 M Z A D D D L U `.`.`.`.`.`.`.`.`.`.`.`.`.`.`.`.`.",
"`.`.`.`.`.`.`.`.`.`.`.`.`.`.`.`.`.`.`.`.L F D D S S Z B V N N N 9 9 N B B Z S D D D F J U `.`.`.`.`.`.`.`.`.`.`.`.`.`.`.`.`.`.`.",
"`.`.`.`.`.`.`.`.`.`.`.`.`.`.`.`.`.`.`.`.`.`.P H K F F D S D S D D S D S S D F K K P `.`.`.`.`.`.`.`.`.`.`.`.`.`.`.`.`.`.`.`.`.`.",
"`.`.`.`.`.`.`.`.`.`.`.`.`.`.`.`.`.`.`.`.`.`.`.`.`.U P J H K K K K K K H J P U `.`.`.`.`.`.`.`.`.`.`.`.`.`.`.`.`.`.`.`.`.`.`.`.`.",
"`.`.`.`.`.`.`.`.`.`.`.`.`.`.`.`.`.`.`.`.`.`.`.`.`.`.`.`.`.`.`.`.`.`.`.`.`.`.`.`.`.`.`.`.`.`.`.`.`.`.`.`.`.`.`.`.`.`.`.`.`.`.`.`.",
"`.`.`.`.`.`.`.`.`.`.`.`.`.`.`.`.`.`.`.`.`.`.`.`.`.`.`.`.`.`.`.`.`.`.`.`.`.`.`.`.`.`.`.`.`.`.`.`.`.`.`.`.`.`.`.`.`.`.`.`.`.`.`.`."
};
