/* XPM */
static char *_626ff56b41e4de2f90cc41ce70124a1[] = {
/* columns rows colors chars-per-pixel */
"64 64 111 2 ",
"   c #A47A2F",
".  c #AA7F2F",
"X  c #A67B30",
"o  c #AB7E31",
"O  c #AE8132",
"+  c #B38534",
"@  c #B88734",
"#  c #B78835",
"$  c #BD8B35",
"%  c #B38739",
"&  c #B5883A",
"*  c #BD8C3B",
"=  c #C18D36",
"-  c #C18F3A",
";  c #C1913F",
":  c #CB953C",
">  c #CC983F",
",  c #AC8341",
"<  c #AD8749",
"1  c #AE894F",
"2  c #B48944",
"3  c #BB8E43",
"4  c #B38C4D",
"5  c #B98F4A",
"6  c #BB9047",
"7  c #AA8850",
"8  c #BE9E67",
"9  c #BE9E68",
"0  c #BFA16E",
"q  c #BFA273",
"w  c #BEA67D",
"e  c #C19243",
"r  c #CA9741",
"t  c #CB9944",
"y  c #C1954D",
"u  c #CA9748",
"i  c #C7994D",
"p  c #CB9B4B",
"a  c #C29955",
"s  c #CC9E53",
"d  c #C29C5B",
"f  c #CA9F5A",
"g  c #CEA056",
"h  c #C6A05F",
"j  c #CDA15B",
"k  c #D1A054",
"l  c #D0A25C",
"z  c #C59F63",
"x  c #C6A063",
"c  c #CDA363",
"v  c #C5A36C",
"b  c #CCA56C",
"n  c #CFA86F",
"m  c #D0A564",
"M  c #D0A76A",
"N  c #D2A96E",
"B  c #C5A575",
"V  c #C9A673",
"C  c #CEA971",
"Z  c #C2A57A",
"A  c #C8A779",
"S  c #C3A97C",
"D  c #CAAA7A",
"F  c #D1AA74",
"G  c #D1AD7B",
"H  c #BEA582",
"J  c #BDA986",
"K  c #BDAA8A",
"L  c #BBAC94",
"P  c #B6AA98",
"I  c #BCB29D",
"U  c #BCB3A3",
"Y  c #BBB6AB",
"T  c #BDB8AC",
"R  c #B6B6B5",
"E  c #B9B6B2",
"W  c #BCBAB4",
"Q  c #B0B6BA",
"!  c #B4BABE",
"~  c #BBBEBE",
"^  c #C0A782",
"/  c #C3AB83",
"(  c #CAAC83",
")  c #C2AE8B",
"_  c #CAAF8B",
"`  c #D1AE82",
"'  c #CEB08A",
"]  c #C1AF95",
"[  c #C2B194",
"{  c #CCB290",
"}  c #C1B39D",
"|  c #C9B59C",
" . c #C1B6A4",
".. c #C2B9AC",
"X. c #C2BDB6",
"o. c #C0BFBC",
"O. c #BDC0BF",
"+. c #C1C0BE",
"@. c #B5BDC3",
"#. c #B9BFC4",
"$. c #B2BFC9",
"%. c #B6C0C7",
"&. c #BCC0C1",
"*. c #B7C1C9",
"=. c #BCC5CB",
"-. c #BEC8CE",
";. c #C0C5C6",
":. c #C0C7C9",
">. c #C5CBCC",
",. c #C8CDCD",
"<. c None",
/* pixels */
"<.<.<.<.<.<.<.<.<.<.<.<.<.<.<.<.<.<.<.<.<.<.<.<.<.<.<.<.<.<.<.<.<.<.<.<.<.<.<.<.<.<.<.<.<.<.<.<.<.<.<.<.<.<.<.<.<.<.<.<.<.<.<.<.",
"<.<.<.<.<.<.<.<.<.<.<.<.<.<.<.<.<.<.<.<.<.<.<.<.<.<.<.<.<.<.<.<.<.<.<.<.<.<.<.<.<.<.<.<.<.<.<.<.<.<.<.<.<.<.<.<.<.<.<.<.<.<.<.<.",
"<.<.<.<.<.<.<.<.<.<.<.<.<.<.<.<.<.<.<.<.<.<.<.<.<.<.<.<.<.<.<.<.<.<.<.<.<.<.<.<.<.<.<.<.<.<.<.<.<.<.<.<.<.<.<.<.<.<.<.<.<.<.<.<.",
"<.<.<.<.<.<.<.<.<.<.<.<.<.<.<.<.<.<.<.<.<.<.<.<.<.<.<.<.<.<.<.<.<.<.<.<.<.<.<.<.<.<.<.<.<.<.<.<.<.<.<.<.<.<.<.<.<.<.<.<.<.<.<.<.",
"<.<.<.<.<.<.<.<.<.<.<.<.<.<.<.<.<.<.<.<.<.<.<.<.<.4 6 3 - * $ $ $ $ $ * 3 3 2 <.<.<.<.<.<.<.<.<.<.<.<.<.<.<.<.<.<.<.<.<.<.<.<.<.",
"<.<.<.<.<.<.<.<.<.<.<.<.<.<.<.<.<.<.<.<.<.<.5 3 $ $ $ $ = $ = = = $ = = = $ $ $ * 3 <.<.<.<.<.<.<.<.<.<.<.<.<.<.<.<.<.<.<.<.<.<.",
"<.<.<.<.<.<.<.<.<.<.<.<.<.<.<.<.<.<.<.1 6 $ = = = = = = = = = = - - = = - $ = - $ $ * * < <.<.<.<.<.<.<.<.<.<.<.<.<.<.<.<.<.<.<.",
"<.<.<.<.<.<.<.<.<.<.<.<.<.<.<.<.<.7 6 $ $ $ = = = y v K I W O.O.O.O.W I K v y - = = $ $ $ - % <.<.<.<.<.<.<.<.<.<.<.<.<.<.<.<.<.",
"<.<.<.<.<.<.<.<.<.<.<.<.<.<.<.<.5 - $ $ = = 6 K T &.&.&.#.~ #.#.O.&.&.&.O.&.O.E J 5 - = = $ $ 3 <.<.<.<.<.<.<.<.<.<.<.<.<.<.<.<.",
"<.<.<.<.<.<.<.<.<.<.<.<.<.<.<.3 $ $ = = d I O.O.&.&.&.+...} ) / S ) } T O.O.&.&.O.O.I d = - = $ * <.<.<.<.<.<.<.<.<.<.<.<.<.<.<.",
"<.<.<.<.<.<.<.<.<.<.<.<.<.1 * $ $ = 6 I O.O.&.O...S f : : : : : : > r r u h / T O.O.&.O.I 6 = $ $ $ % <.<.<.<.<.<.<.<.<.<.<.<.<.",
"<.<.<.<.<.<.<.<.<.<.<.<.4 $ = = - w &.O.&.&.L s : : : : : : : : r r t r u u p r d [ O.&.O.O.w $ = $ $ & <.<.<.<.<.<.<.<.<.<.<.<.",
"<.<.<.<.<.<.<.<.<.<.<.4 $ = = e I ~ O.&.] i : : : : : > r : u u t t t t i p t t t > i L O.O.O.I ; - = $ % <.<.<.<.<.<.<.<.<.<.<.",
"<.<.<.<.<.<.<.<.<.<.4 $ = = y Y O.O.W f : : : : : : : : w U @.J r r p p p p i t r > : ; f O.&.O.T 6 = $ $ + <.<.<.<.<.<.<.<.<.<.",
"<.<.<.<.<.<.<.<.<.<.* = = y W ~ O.} r : : : u z ^ ^ > > U #.#.Y p p p p i i p u i r > > : : I O.O.W y = = $ <.<.<.<.<.<.<.<.<.<.",
"<.<.<.<.<.<.<.<.<.* $ = e E &.&.) : : : : : P $.=.W t t ) =.:.@.s s s p i i p p t t r > : : : ) &.O.E e $ $ $ <.<.<.<.<.<.<.<.<.",
"<.<.<.<.<.<.<.<.6 $ $ = U O.O.J : : : > : > B =.=.#.f p M =.;.=.B l k s s i s s p t r r : : : : ) O.O.U - = $ # <.<.<.<.<.<.<.<.",
"<.<.<.<.<.<.<.7 * $ = K O.&.I : : : > > > > f %.;.=.B p s #.>.=.] j h f h f s s p p t r : : : : : L O.O.K = $ $ O <.<.<.<.<.<.<.",
"<.<.<.<.<.<.<.3 $ = a O.O.T r : : : > > t t t #.:.:.] p s o.:.>.=.~ %.=.%.! I c p p t r > : : : : : T O.O.d $ $ $ <.<.<.<.<.<.<.",
"<.<.<.<.<.<.< $ $ $ E O.O.i : : : : > t t t t Y :.>.o...=.:.>.>.:.>.>.>.:.:.=.&.( p p t > > : : : : i O.O.T $ $ $ O <.<.<.<.<.<.",
"<.<.<.<.<.<.3 = $ q O.O.J : : > r t t t p j / W >.>.:.>.>.>.>.>.>.>.>.>.>.>.>.;.%.c p p > > > : : : : w O.O.0 $ $ $ <.<.<.<.<.<.",
"<.<.<.<.<.<.$ = - W O.O.: : r : t h ^ I ~ =.-.:.>.>.>.>.>.>.>.:.:.>.:.>.>.>.>.>.=.} p p p > > : : : : : W O.O.$ $ $ <.<.<.<.<.<.",
"<.<.<.<.<.3 $ = 8 O.&.q t : t t t Q =.;.;.>.>.>.>.,.,.:.-.*.X. .|  .~ :.>.,.>.>.:.@.g p t > > > : : : - B O.O.8 = $ # <.<.<.<.<.",
"<.<.<.<.<.* $ = I O.O.i t t t p p U =.:.:.:.>.>.>.,.>.;._ G F F F N N  .:.>.,.>.>.=.c p p p > > : : : : > O.O.I = $ = <.<.<.<.<.",
"<.<.<.<.<.$ = e ~ &.) t t i p p p ^ $.#.W #.:.>.,.>.>.-.` F F F F N N C =.>.,.>.>.=.x p p p p > : : : : : ) O.O.e = $ <.<.<.<.<.",
"<.<.<.<.2 $ = 0 ~ &.x u t p p p p f A c l m ~ >.,.,.,.-.| F G G F F F n %.>.,.,.>.%.l p p p p > : : : : : 8 O.O.0 = $ + <.<.<.<.",
"<.<.<.<.3 $ = K &.O.u r t i p i s g f j j m ] -.>.,.,.:...G G G G G F ( -.>.,.>.-.} k k p p p > : : - : : : O.O.K = $ $ <.<.<.<.",
"<.<.<.<.* = = Y &.U : u p p p g s f f c m m ( -.>.,.,.>.&.` G ` G G ( &.>.,.,.>.+.M j g k p p > t : : : : : U O.T = $ $ <.<.<.<.",
"<.<.<.<.* = - ~ &.) r r t i p p s f l c m m C #.,.,.,.,.-.' ` G _ ..-.-.>.,.,.>.>.=.W I l k p p t > > : : - ) O.~ = = $ <.<.<.<.",
"<.<.<.<.$ = 6 ~ O.S : r r t i p k s f j m m M W >.,.,.,.>...W =.-.-.,.,.,.,.,.,.>.>.>.=.W l p p t t : > : : S O.~ y = $ <.<.<.<.",
"<.<.<.<.$ = a ~ O.v : : t t t p p s f l l c M  .-.,.,.,.,.>.-.,.,.,.>.-.>.,.,.>.,.,.>.>.=.U s p p r r : : : v &.O.a $ $ <.<.<.<.",
"<.<.<.<.$ = a #.&.h : r : t t i p s s f l c M ( -.>.>.,.,.,.,.-.-.-.=.-.-.-.>.>.>.,.,.>.:.=.c p p p t r : : h &.#.a = $ <.<.<.<.",
"<.<.<.<.* = d O.O.h - : > > t p p p s s j j m M =.>.,.,.,.,.:.;...| ' ` ` (  .=.>.>.>.>.>.;.) p p p t > > : x O.O.d = $ <.<.<.<.",
"<.<.<.<.$ $ a O.O.v : : > > > t p p s s l j c h ~ >.,.,.,.>.| ` ` ` G G G F F { >.>.,.>.>.;.} s p p t u r : v &.! a = $ <.<.<.<.",
"<.<.<.<.$ = 6 O.O.w : : : : : > p p p s g j j j } -.,.,.,.>...G ` ` G G F F F n =.>.,.>.>.:.Y s k p p t r r S &.O.6 - $ <.<.<.<.",
"<.<.<.<.$ = = O.O.) : : : > > > t t p s s l f j / -.,.,.,.-.+.` ` G G F C C N m =.>.,.,.>.;.U k p p p t r r ) &.! = = $ <.<.<.<.",
"<.<.<.<.$ $ = Y O.U : : : : : : t t i p s f s s b #.>.,.,.>.-.` G G F F F N M ) :.>.>.>.>.=.] k s p p p u : U &.T = $ $ <.<.<.<.",
"<.<.<.<.* = = K O.O.: : : : : : t t u p u s s s f o.>.,.,.>.-.{ F G F F N M / =.>.>.>.>.;.=.b k s s p p t u O.&.K = $ # <.<.<.<.",
"<.<.<.<.# $ $ 0 O.O.h : : = : : r r : i i p s s f  .-.,.,.,.>. .F F F n / Y =.>.>.>.>.>.=.U k p p p t t u x &.~ 0 = $ + <.<.<.<.",
"<.<.<.<.<.$ $ 6 O.O.J : : : : : r : r i i s s f f ( -.>.,.>.>.X.G ) U ~ -.:.>.>.>.:.>.=.Y s p p p t t u r ) &.~ 6 $ $ <.<.<.<.<.",
"<.<.<.<.<.$ = = I &.O.t : : : : : i t i s g s s g n =.>.,.,.>.:.=.-.>.>.>.>.>.>.>.=.#.] k p p p t r r r u O.O.I = = @ <.<.<.<.<.",
"<.<.<.<.<.$ $ = 9 O.O.q ; : = : : : t i p f s g b } -.>.,.,.,.,.>.>.>.>.>.>.>.=.#.} c s p p t t t r r r B O.~ 8 = $ # <.<.<.<.<.",
"<.<.<.<.<.<.$ $ $ W &.W : : : : : : : p p p q ! =.=.>.>.>.,.,.>.>.>.>.>.>.>.o.( m m f p t t > > r : : r W &.W - = $ <.<.<.<.<.<.",
"<.<.<.<.<.<.$ $ $ q O.O.w : : : : : r r r p S *.;.>.>.>.>.>.>.>.:.=...#.>.:.W l f g p t t > > : r : : w O.O.0 = $ @ <.<.<.<.<.<.",
"<.<.<.<.<.<.O $ $ = T &.O.i : : : : : : t p v *.=.=.=.=.=.;.>.>.o.m m } :.>.#.m k t t t > > : : : : y O.&.Y 3 = $ o <.<.<.<.<.<.",
"<.<.<.<.<.<.<.$ $ = d &.O.T : : : : : > t r h $.@.E [ D c ) =.:.#.m k D =.:.$.c t t > > > : : : : r T O.&.d = $ # <.<.<.<.<.<.<.",
"<.<.<.<.<.<.<.. $ $ = J O.O.I : : : : > > t : x j j l l s B *.:.=.V p g #.=.=.^ t > > : : : : : : L O.O.K = $ $   <.<.<.<.<.<.<.",
"<.<.<.<.<.<.<.<.# $ = * I O.&./ = : : : > > p i i j s s s h &.=.=.) p p R =.@.L > > > : : : : : ) O.O.U - = $ + <.<.<.<.<.<.<.<.",
"<.<.<.<.<.<.<.<.<.$ $ = e E O.O.) : : : > > t p p g s s g s Y *.=.Y > > H L v > : : : : : : : ) O.O.Y ; = = $ <.<.<.<.<.<.<.<.<.",
"<.<.<.<.<.<.<.<.<.<.$ $ $ y W O.&.I r : : : r t t p p p g p K @.Y / t > > : : : : : : : : r I &.O.O.6 $ $ # <.<.<.<.<.<.<.<.<.<.",
"<.<.<.<.<.<.<.<.<.<.O $ $ = 6 T O.&.W d : : r r u p p p p r i p r r > : > : : : : : : : f W &.~ W 6 = = $ O <.<.<.<.<.<.<.<.<.<.",
"<.<.<.<.<.<.<.<.<.<.<.+ $ = = e I O.O.O.L i : r r t t i p t t t t : > : : : : : : : i L O.O.~ I ; = $ $ O <.<.<.<.<.<.<.<.<.<.<.",
"<.<.<.<.<.<.<.<.<.<.<.<.+ $ $ $ = w O.O.&.&.) f r u t t t : : r : : : > : : : : p ) O.O.&.~ w = = = $ O <.<.<.<.<.<.<.<.<.<.<.<.",
"<.<.<.<.<.<.<.<.<.<.<.<.<.O $ $ = = y I O.&.&.&.T J h u r : > : : : : : : h S T O.O.&.O.I y = = $ $ O <.<.<.<.<.<.<.<.<.<.<.<.<.",
"<.<.<.<.<.<.<.<.<.<.<.<.<.<.<.$ $ $ = = a I ~ &.O.O.&.&.T I [ S / ) } ..&.&.&.O.&.&.I d = = $ $ # <.<.<.<.<.<.<.<.<.<.<.<.<.<.<.",
"<.<.<.<.<.<.<.<.<.<.<.<.<.<.<.<.# $ $ $ = * y J W O.O.O.&.&.O.O.O.O.O.O.&.O.O.W J 6 $ $ $ $ $ + <.<.<.<.<.<.<.<.<.<.<.<.<.<.<.<.",
"<.<.<.<.<.<.<.<.<.<.<.<.<.<.<.<.<.X $ $ $ $ $ = = y 0 J I W ~ ~ O.~ W I K v 6 - = $ = $ $ @   <.<.<.<.<.<.<.<.<.<.<.<.<.<.<.<.<.",
"<.<.<.<.<.<.<.<.<.<.<.<.<.<.<.<.<.<.<.o @ $ $ $ = = = = = - = = = = = = = = = - $ $ $ # X <.<.<.<.<.<.<.<.<.<.<.<.<.<.<.<.<.<.<.",
"<.<.<.<.<.<.<.<.<.<.<.<.<.<.<.<.<.<.<.<.<.<.@ $ $ $ = = = = = = $ = = $ = $ $ $ $ + <.<.<.<.<.<.<.<.<.<.<.<.<.<.<.<.<.<.<.<.<.<.",
"<.<.<.<.<.<.<.<.<.<.<.<.<.<.<.<.<.<.<.<.<.<.<.<.<.O @ @ $ $ $ $ $ $ $ $ $ # O <.<.<.<.<.<.<.<.<.<.<.<.<.<.<.<.<.<.<.<.<.<.<.<.<.",
"<.<.<.<.<.<.<.<.<.<.<.<.<.<.<.<.<.<.<.<.<.<.<.<.<.<.<.<.<.<.<.<.<.<.<.<.<.<.<.<.<.<.<.<.<.<.<.<.<.<.<.<.<.<.<.<.<.<.<.<.<.<.<.<.",
"<.<.<.<.<.<.<.<.<.<.<.<.<.<.<.<.<.<.<.<.<.<.<.<.<.<.<.<.<.<.<.<.<.<.<.<.<.<.<.<.<.<.<.<.<.<.<.<.<.<.<.<.<.<.<.<.<.<.<.<.<.<.<.<.",
"<.<.<.<.<.<.<.<.<.<.<.<.<.<.<.<.<.<.<.<.<.<.<.<.<.<.<.<.<.<.<.<.<.<.<.<.<.<.<.<.<.<.<.<.<.<.<.<.<.<.<.<.<.<.<.<.<.<.<.<.<.<.<.<.",
"<.<.<.<.<.<.<.<.<.<.<.<.<.<.<.<.<.<.<.<.<.<.<.<.<.<.<.<.<.<.<.<.<.<.<.<.<.<.<.<.<.<.<.<.<.<.<.<.<.<.<.<.<.<.<.<.<.<.<.<.<.<.<.<."
};
